<mxfile host="65bd71144e">
    <diagram id="kFHsKnUcHZG-ZesrnvkE" name="PÃ¡gina-1">
        <mxGraphModel dx="596" dy="478" grid="1" gridSize="10" guides="1" tooltips="1" connect="1" arrows="1" fold="1" page="1" pageScale="1" pageWidth="827" pageHeight="1169" math="0" shadow="0">
            <root>
                <mxCell id="0"/>
                <mxCell id="1" parent="0"/>
                <mxCell id="64" style="edgeStyle=none;jumpSize=9;html=1;endArrow=ERmany;endFill=0;startSize=6;endSize=23;" edge="1" parent="1" source="6">
                    <mxGeometry relative="1" as="geometry">
                        <mxPoint x="680" y="200" as="targetPoint"/>
                    </mxGeometry>
                </mxCell>
                <mxCell id="65" style="edgeStyle=none;jumpSize=9;html=1;exitX=0;exitY=0;exitDx=0;exitDy=0;entryX=1;entryY=0.75;entryDx=0;entryDy=0;endArrow=ERmany;endFill=0;startSize=6;endSize=23;" edge="1" parent="1" source="6" target="11">
                    <mxGeometry relative="1" as="geometry">
                        <Array as="points">
                            <mxPoint x="510" y="260"/>
                            <mxPoint x="510" y="220"/>
                        </Array>
                    </mxGeometry>
                </mxCell>
                <mxCell id="6" value="bazar" style="swimlane;" vertex="1" parent="1">
                    <mxGeometry x="580" y="260" width="200" height="200" as="geometry"/>
                </mxCell>
                <mxCell id="8" value="art&amp;nbsp; jardinId" style="text;html=1;align=center;verticalAlign=middle;resizable=0;points=[];autosize=1;strokeColor=none;fillColor=none;" vertex="1" parent="6">
                    <mxGeometry x="5" y="70" width="80" height="20" as="geometry"/>
                </mxCell>
                <mxCell id="7" value="juguetesId" style="text;html=1;align=center;verticalAlign=middle;resizable=0;points=[];autosize=1;strokeColor=none;fillColor=none;" vertex="1" parent="6">
                    <mxGeometry x="10" y="50" width="70" height="20" as="geometry"/>
                </mxCell>
                <mxCell id="9" value="vajillaId" style="text;html=1;align=center;verticalAlign=middle;resizable=0;points=[];autosize=1;strokeColor=none;fillColor=none;" vertex="1" parent="6">
                    <mxGeometry x="5" y="90" width="60" height="20" as="geometry"/>
                </mxCell>
                <mxCell id="13" value="id" style="text;html=1;align=center;verticalAlign=middle;resizable=0;points=[];autosize=1;strokeColor=none;fillColor=none;" vertex="1" parent="6">
                    <mxGeometry x="10" y="30" width="30" height="20" as="geometry"/>
                </mxCell>
                <mxCell id="39" value="empleados" style="text;html=1;align=center;verticalAlign=middle;resizable=0;points=[];autosize=1;strokeColor=none;fillColor=none;" vertex="1" parent="6">
                    <mxGeometry x="5" y="110" width="80" height="20" as="geometry"/>
                </mxCell>
                <mxCell id="11" value="juguetes" style="swimlane;" vertex="1" parent="1">
                    <mxGeometry x="230" y="70" width="200" height="200" as="geometry"/>
                </mxCell>
                <mxCell id="12" value="id" style="text;html=1;align=center;verticalAlign=middle;resizable=0;points=[];autosize=1;strokeColor=none;fillColor=none;" vertex="1" parent="11">
                    <mxGeometry x="10" y="30" width="30" height="20" as="geometry"/>
                </mxCell>
                <mxCell id="18" value="stockId" style="text;html=1;align=center;verticalAlign=middle;resizable=0;points=[];autosize=1;strokeColor=none;fillColor=none;" vertex="1" parent="11">
                    <mxGeometry x="10" y="110" width="50" height="20" as="geometry"/>
                </mxCell>
                <mxCell id="19" value="aclaracion" style="text;html=1;align=center;verticalAlign=middle;resizable=0;points=[];autosize=1;strokeColor=none;fillColor=none;" vertex="1" parent="11">
                    <mxGeometry x="5" y="130" width="70" height="20" as="geometry"/>
                </mxCell>
                <mxCell id="15" value="name" style="text;html=1;align=center;verticalAlign=middle;resizable=0;points=[];autosize=1;strokeColor=none;fillColor=none;" vertex="1" parent="11">
                    <mxGeometry x="5" y="50" width="50" height="20" as="geometry"/>
                </mxCell>
                <mxCell id="16" value="precio" style="text;html=1;align=center;verticalAlign=middle;resizable=0;points=[];autosize=1;strokeColor=none;fillColor=none;" vertex="1" parent="11">
                    <mxGeometry x="5" y="70" width="50" height="20" as="geometry"/>
                </mxCell>
                <mxCell id="17" value="descripcion" style="text;html=1;align=center;verticalAlign=middle;resizable=0;points=[];autosize=1;strokeColor=none;fillColor=none;" vertex="1" parent="11">
                    <mxGeometry x="5" y="90" width="80" height="20" as="geometry"/>
                </mxCell>
                <mxCell id="25" value="juguetes" style="swimlane;" vertex="1" parent="1">
                    <mxGeometry x="310" y="300" width="200" height="200" as="geometry"/>
                </mxCell>
                <mxCell id="26" value="id" style="text;html=1;align=center;verticalAlign=middle;resizable=0;points=[];autosize=1;strokeColor=none;fillColor=none;" vertex="1" parent="25">
                    <mxGeometry x="10" y="30" width="30" height="20" as="geometry"/>
                </mxCell>
                <mxCell id="27" value="stockId" style="text;html=1;align=center;verticalAlign=middle;resizable=0;points=[];autosize=1;strokeColor=none;fillColor=none;" vertex="1" parent="25">
                    <mxGeometry x="10" y="110" width="50" height="20" as="geometry"/>
                </mxCell>
                <mxCell id="28" value="aclaracion" style="text;html=1;align=center;verticalAlign=middle;resizable=0;points=[];autosize=1;strokeColor=none;fillColor=none;" vertex="1" parent="25">
                    <mxGeometry x="5" y="130" width="70" height="20" as="geometry"/>
                </mxCell>
                <mxCell id="29" value="name" style="text;html=1;align=center;verticalAlign=middle;resizable=0;points=[];autosize=1;strokeColor=none;fillColor=none;" vertex="1" parent="25">
                    <mxGeometry x="10" y="50" width="50" height="20" as="geometry"/>
                </mxCell>
                <mxCell id="30" value="descripcion" style="text;html=1;align=center;verticalAlign=middle;resizable=0;points=[];autosize=1;strokeColor=none;fillColor=none;" vertex="1" parent="25">
                    <mxGeometry x="5" y="90" width="80" height="20" as="geometry"/>
                </mxCell>
                <mxCell id="31" value="precio" style="text;html=1;align=center;verticalAlign=middle;resizable=0;points=[];autosize=1;strokeColor=none;fillColor=none;" vertex="1" parent="25">
                    <mxGeometry x="10" y="70" width="50" height="20" as="geometry"/>
                </mxCell>
                <mxCell id="32" value="juguetes" style="swimlane;" vertex="1" parent="1">
                    <mxGeometry x="540" width="200" height="200" as="geometry"/>
                </mxCell>
                <mxCell id="33" value="id" style="text;html=1;align=center;verticalAlign=middle;resizable=0;points=[];autosize=1;strokeColor=none;fillColor=none;" vertex="1" parent="32">
                    <mxGeometry x="10" y="30" width="30" height="20" as="geometry"/>
                </mxCell>
                <mxCell id="34" value="stockId" style="text;html=1;align=center;verticalAlign=middle;resizable=0;points=[];autosize=1;strokeColor=none;fillColor=none;" vertex="1" parent="32">
                    <mxGeometry x="10" y="110" width="50" height="20" as="geometry"/>
                </mxCell>
                <mxCell id="35" value="aclaracion" style="text;html=1;align=center;verticalAlign=middle;resizable=0;points=[];autosize=1;strokeColor=none;fillColor=none;" vertex="1" parent="32">
                    <mxGeometry x="5" y="130" width="70" height="20" as="geometry"/>
                </mxCell>
                <mxCell id="36" value="name" style="text;html=1;align=center;verticalAlign=middle;resizable=0;points=[];autosize=1;strokeColor=none;fillColor=none;" vertex="1" parent="32">
                    <mxGeometry x="10" y="50" width="50" height="20" as="geometry"/>
                </mxCell>
                <mxCell id="37" value="descripcion" style="text;html=1;align=center;verticalAlign=middle;resizable=0;points=[];autosize=1;strokeColor=none;fillColor=none;" vertex="1" parent="32">
                    <mxGeometry x="5" y="90" width="80" height="20" as="geometry"/>
                </mxCell>
                <mxCell id="38" value="precio" style="text;html=1;align=center;verticalAlign=middle;resizable=0;points=[];autosize=1;strokeColor=none;fillColor=none;" vertex="1" parent="32">
                    <mxGeometry x="15" y="70" width="50" height="20" as="geometry"/>
                </mxCell>
                <mxCell id="66" style="edgeStyle=none;jumpSize=9;html=1;entryX=0.5;entryY=1;entryDx=0;entryDy=0;endArrow=ERmany;endFill=0;startSize=6;endSize=23;" edge="1" parent="1" source="40" target="6">
                    <mxGeometry relative="1" as="geometry">
                        <Array as="points">
                            <mxPoint x="530" y="530"/>
                            <mxPoint x="680" y="530"/>
                        </Array>
                    </mxGeometry>
                </mxCell>
                <mxCell id="68" style="edgeStyle=none;jumpSize=9;html=1;exitX=0;exitY=0;exitDx=0;exitDy=0;endArrow=ERmany;endFill=0;startSize=6;endSize=23;entryX=0.5;entryY=1;entryDx=0;entryDy=0;" edge="1" parent="1" source="40" target="47">
                    <mxGeometry relative="1" as="geometry">
                        <mxPoint x="90" y="585" as="targetPoint"/>
                        <Array as="points">
                            <mxPoint x="120" y="585"/>
                        </Array>
                    </mxGeometry>
                </mxCell>
                <mxCell id="40" value="empleados" style="swimlane;" vertex="1" parent="1">
                    <mxGeometry x="430" y="585" width="200" height="200" as="geometry"/>
                </mxCell>
                <mxCell id="41" value="id" style="text;html=1;align=center;verticalAlign=middle;resizable=0;points=[];autosize=1;strokeColor=none;fillColor=none;" vertex="1" parent="40">
                    <mxGeometry x="15" y="30" width="30" height="20" as="geometry"/>
                </mxCell>
                <mxCell id="43" value="apellido" style="text;html=1;align=center;verticalAlign=middle;resizable=0;points=[];autosize=1;strokeColor=none;fillColor=none;" vertex="1" parent="40">
                    <mxGeometry x="5" y="70" width="60" height="20" as="geometry"/>
                </mxCell>
                <mxCell id="44" value="dni" style="text;html=1;align=center;verticalAlign=middle;resizable=0;points=[];autosize=1;strokeColor=none;fillColor=none;" vertex="1" parent="40">
                    <mxGeometry x="15" y="90" width="30" height="20" as="geometry"/>
                </mxCell>
                <mxCell id="45" value="sueldo" style="text;html=1;align=center;verticalAlign=middle;resizable=0;points=[];autosize=1;strokeColor=none;fillColor=none;" vertex="1" parent="40">
                    <mxGeometry x="10" y="110" width="50" height="20" as="geometry"/>
                </mxCell>
                <mxCell id="46" value="rol" style="text;html=1;align=center;verticalAlign=middle;resizable=0;points=[];autosize=1;strokeColor=none;fillColor=none;" vertex="1" parent="40">
                    <mxGeometry x="15" y="130" width="30" height="20" as="geometry"/>
                </mxCell>
                <mxCell id="42" value="nombre" style="text;html=1;align=center;verticalAlign=middle;resizable=0;points=[];autosize=1;strokeColor=none;fillColor=none;" vertex="1" parent="40">
                    <mxGeometry x="15" y="50" width="60" height="20" as="geometry"/>
                </mxCell>
                <mxCell id="60" style="edgeStyle=none;jumpSize=9;html=1;exitX=0.25;exitY=0;exitDx=0;exitDy=0;entryX=0;entryY=0.25;entryDx=0;entryDy=0;endArrow=ERmany;endFill=0;startSize=6;endSize=31;" edge="1" parent="1" source="47" target="32">
                    <mxGeometry relative="1" as="geometry">
                        <Array as="points">
                            <mxPoint x="70" y="50"/>
                        </Array>
                    </mxGeometry>
                </mxCell>
                <mxCell id="61" style="edgeStyle=none;jumpSize=9;html=1;exitX=0.75;exitY=0;exitDx=0;exitDy=0;entryX=0;entryY=0.25;entryDx=0;entryDy=0;endArrow=ERmany;endFill=0;startSize=6;endSize=23;" edge="1" parent="1" source="47" target="11">
                    <mxGeometry relative="1" as="geometry">
                        <Array as="points">
                            <mxPoint x="170" y="120"/>
                        </Array>
                    </mxGeometry>
                </mxCell>
                <mxCell id="62" style="edgeStyle=none;jumpSize=9;html=1;exitX=1;exitY=0.5;exitDx=0;exitDy=0;endArrow=ERmany;endFill=0;startSize=6;endSize=23;" edge="1" parent="1" source="47">
                    <mxGeometry relative="1" as="geometry">
                        <mxPoint x="310" y="380" as="targetPoint"/>
                    </mxGeometry>
                </mxCell>
                <mxCell id="47" value="Bodega" style="swimlane;" vertex="1" parent="1">
                    <mxGeometry x="20" y="280" width="200" height="200" as="geometry"/>
                </mxCell>
                <mxCell id="49" value="id" style="text;html=1;align=center;verticalAlign=middle;resizable=0;points=[];autosize=1;strokeColor=none;fillColor=none;" vertex="1" parent="47">
                    <mxGeometry x="15" y="30" width="30" height="20" as="geometry"/>
                </mxCell>
                <mxCell id="50" value="jugueteStockId" style="text;html=1;align=center;verticalAlign=middle;resizable=0;points=[];autosize=1;strokeColor=none;fillColor=none;" vertex="1" parent="47">
                    <mxGeometry x="10" y="50" width="100" height="20" as="geometry"/>
                </mxCell>
                <mxCell id="51" value="jardineriaStockId" style="text;html=1;align=center;verticalAlign=middle;resizable=0;points=[];autosize=1;strokeColor=none;fillColor=none;" vertex="1" parent="47">
                    <mxGeometry x="10" y="70" width="110" height="20" as="geometry"/>
                </mxCell>
                <mxCell id="53" value="vajillaStockId" style="text;html=1;align=center;verticalAlign=middle;resizable=0;points=[];autosize=1;strokeColor=none;fillColor=none;" vertex="1" parent="47">
                    <mxGeometry x="15" y="90" width="90" height="20" as="geometry"/>
                </mxCell>
                <mxCell id="67" style="edgeStyle=none;jumpSize=9;html=1;entryX=0;entryY=0.25;entryDx=0;entryDy=0;endArrow=ERmany;endFill=0;startSize=6;endSize=23;" edge="1" parent="1" source="48" target="40">
                    <mxGeometry relative="1" as="geometry">
                        <Array as="points">
                            <mxPoint x="400" y="740"/>
                            <mxPoint x="400" y="635"/>
                        </Array>
                    </mxGeometry>
                </mxCell>
                <mxCell id="79" style="edgeStyle=none;jumpSize=9;html=1;endArrow=ERmany;endFill=0;startSize=6;endSize=23;" edge="1" parent="1" source="48">
                    <mxGeometry relative="1" as="geometry">
                        <mxPoint x="130" y="710" as="targetPoint"/>
                    </mxGeometry>
                </mxCell>
                <mxCell id="48" value="Caja" style="swimlane;startSize=23;strokeWidth=1;spacing=0;" vertex="1" parent="1">
                    <mxGeometry x="190" y="640" width="200" height="140" as="geometry"/>
                </mxCell>
                <mxCell id="69" value="id" style="text;html=1;align=center;verticalAlign=middle;resizable=0;points=[];autosize=1;strokeColor=none;fillColor=none;" vertex="1" parent="48">
                    <mxGeometry x="15" y="30" width="30" height="20" as="geometry"/>
                </mxCell>
                <mxCell id="70" value="ventaId" style="text;html=1;align=center;verticalAlign=middle;resizable=0;points=[];autosize=1;strokeColor=none;fillColor=none;" vertex="1" parent="48">
                    <mxGeometry x="10" y="50" width="50" height="20" as="geometry"/>
                </mxCell>
                <mxCell id="63" style="edgeStyle=none;jumpSize=9;html=1;endArrow=ERmany;endFill=0;startSize=6;endSize=23;" edge="1" parent="1" source="39">
                    <mxGeometry relative="1" as="geometry">
                        <mxPoint x="510" y="380" as="targetPoint"/>
                    </mxGeometry>
                </mxCell>
                <mxCell id="71" value="registro" style="swimlane;startSize=30;" vertex="1" parent="1">
                    <mxGeometry y="635" width="130" height="200" as="geometry"/>
                </mxCell>
                <mxCell id="72" value="fecha" style="text;html=1;align=center;verticalAlign=middle;resizable=0;points=[];autosize=1;strokeColor=none;fillColor=none;" vertex="1" parent="71">
                    <mxGeometry x="5" y="60" width="50" height="20" as="geometry"/>
                </mxCell>
                <mxCell id="73" value="id" style="text;html=1;align=center;verticalAlign=middle;resizable=0;points=[];autosize=1;strokeColor=none;fillColor=none;" vertex="1" parent="71">
                    <mxGeometry x="10" y="40" width="30" height="20" as="geometry"/>
                </mxCell>
                <mxCell id="75" value="articulo" style="text;html=1;align=center;verticalAlign=middle;resizable=0;points=[];autosize=1;strokeColor=none;fillColor=none;" vertex="1" parent="71">
                    <mxGeometry y="75" width="60" height="20" as="geometry"/>
                </mxCell>
                <mxCell id="76" value="metodo de pago" style="text;html=1;align=center;verticalAlign=middle;resizable=0;points=[];autosize=1;strokeColor=none;fillColor=none;" vertex="1" parent="71">
                    <mxGeometry y="95" width="110" height="20" as="geometry"/>
                </mxCell>
                <mxCell id="77" value="total de la compra" style="text;html=1;align=center;verticalAlign=middle;resizable=0;points=[];autosize=1;strokeColor=none;fillColor=none;" vertex="1" parent="71">
                    <mxGeometry y="115" width="110" height="20" as="geometry"/>
                </mxCell>
            </root>
        </mxGraphModel>
    </diagram>
</mxfile>